<svg version="1.2" xmlns="http://www.w3.org/2000/svg" viewBox="0 0 1154 1154" width="40" height="40">
	<style>
		.s0 { fill: #ffb965 } 
		.s1 { fill: #ffa3a3 } 
		.s2 { fill: #ffd300 } 
		.s3 { fill: #9ff43c } 
		.s4 { fill: #ffffff } 
		.s5 { fill: #00ecc5 } 
		.s6 { fill: #e8b3ff } 
		.s7 { fill: #6fc6ff } 
	</style>
	<g id="Background">
		<path id="Path 0" fill-rule="evenodd" class="s0" d="m813.74 241.02c0.13-0.01-0.65 1.22-1.73 2.73-1.09 1.51-6.99 7.93-24.29 25.75l9.39-10.43c5.17-5.74 10.97-12.14 12.89-14.23 1.92-2.09 3.61-3.81 3.74-3.82zm36.61 26.12l3.08 2.24c1.69 1.24 52.34 37.99 112.57 81.68 60.22 43.69 111.46 81.46 113.86 83.93 2.4 2.48 5.86 6.98 7.7 10.01 1.83 3.02 3.47 6.57 3.64 7.89 0.29 2.28-0.87 2.76-27.2 11.31-15.13 4.91-38.97 12.68-53 17.27-14.02 4.59-41.02 13.36-60 19.5-18.98 6.14-43.95 14.25-55.5 18.02-11.55 3.77-38.33 12.48-59.5 19.36-21.17 6.87-73.38 23.82-116 37.65-42.63 13.84-95.95 31.17-118.5 38.52-22.55 7.35-55.63 18.1-73.5 23.89-17.88 5.78-32.59 10.42-32.69 10.3-0.11-0.11 3.27-3.82 7.5-8.24 4.23-4.41 12.64-13.39 18.69-19.96 6.05-6.56 18.16-19.6 26.92-28.97 8.75-9.37 18.88-20.23 22.5-24.12 3.62-3.9 11.75-12.66 18.08-19.47 6.33-6.81 15.07-16.22 19.43-20.92 4.36-4.69 11.11-11.92 15-16.07 3.89-4.15 10.22-10.92 14.07-15.05 3.85-4.12 12.17-13.09 18.5-19.93 6.33-6.84 15.3-16.5 19.94-21.46 4.64-4.96 11.62-12.42 15.5-16.59 3.88-4.16 10.21-10.94 14.06-15.06 3.85-4.13 11.95-12.87 18-19.42 6.05-6.56 14.83-16 19.5-20.98 4.67-4.97 11.42-12.2 15-16.05 3.58-3.85 11.67-12.6 18-19.43 6.33-6.84 14.68-15.82 18.56-19.96 3.89-4.14 10.86-11.59 15.5-16.56 4.64-4.97 12.04-12.87 16.44-17.55 4.4-4.69 11.57-12.41 15.93-17.15zm-62.83 2.86c0.4 0-0.57 1.25-2.15 2.79-1.58 1.53-8.05 8.4-14.38 15.25-6.32 6.85-15.1 16.28-19.5 20.96-4.4 4.68-13.17 14.08-19.5 20.89-6.32 6.81-14.65 15.6-18.5 19.54-3.85 3.93-5.41 5.33-3.48 3.11 1.94-2.23 7.12-7.87 11.5-12.56 4.39-4.68 11.32-12.11 15.4-16.5 4.09-4.39 10.61-11.38 14.5-15.52 3.9-4.15 12.03-12.91 18.08-19.47 6.05-6.56 12.42-13.41 14.15-15.21 1.74-1.81 3.48-3.28 3.88-3.28zm-86.04 91c0.22 0 0.09 0.64-0.29 1.43-0.38 0.79-6.28 7.43-13.12 14.75-6.83 7.33-17.18 18.46-23 24.74-5.81 6.28-13.95 14.85-18.08 19.03-4.12 4.18-5.7 5.57-3.5 3.09 2.2-2.48 6.75-7.44 10.11-11.03 3.36-3.58 8.53-9.13 11.5-12.33 2.97-3.2 6.74-7.26 8.39-9.02 1.65-1.76 8.18-8.73 14.5-15.5 6.33-6.77 11.86-12.95 12.29-13.73 0.44-0.79 0.98-1.43 1.2-1.43zm-62.8 69c0.35 0-2.49 3.26-6.33 7.25-3.83 3.98-10.74 11.07-23.73 24.25l7.44-8.05c4.09-4.42 10.71-11.51 14.7-15.75 4-4.24 7.56-7.7 7.92-7.7zm-29.85 32c0.22 0-1.79 2.36-4.46 5.25-2.66 2.88-5.98 6.12-7.36 7.19-1.38 1.07 0.62-1.29 4.46-5.25 3.83-3.96 7.15-7.19 7.36-7.19zm-14.03 15c0.25 0-1.97 2.58-4.93 5.75-2.96 3.16-8.08 8.65-11.38 12.19-3.3 3.54-9.17 9.84-13.05 14-3.89 4.16-10.86 11.61-15.51 16.56-4.65 4.95-10.59 11.36-13.19 14.25-2.61 2.88-4.75 5.02-4.75 4.75 0-0.28 2.32-3.09 5.15-6.25 2.83-3.17 8.34-9.15 12.25-13.29 3.91-4.15 12.05-12.9 18.1-19.46 6.05-6.55 14.57-15.64 18.93-20.21 4.36-4.56 8.13-8.29 8.38-8.29zm-64.21 68c0.24 0-0.52 1.23-1.67 2.75-1.16 1.51-7.13 8.14-13.26 14.73-6.14 6.59-12.67 13.56-14.51 15.5-1.85 1.93-10.62 11.3-19.5 20.81-8.89 9.51-16.38 17.29-16.66 17.28-0.27 0 1.75-2.39 4.5-5.3 2.75-2.91 10.18-10.88 16.5-17.7 6.33-6.82 12.85-13.82 14.5-15.55 1.65-1.73 7.78-8.3 13.62-14.59 5.84-6.29 11.84-12.9 13.33-14.68 1.5-1.79 2.91-3.25 3.15-3.25zm-76.77 68.5c0.48 0.55 1.51 3.14 3.67 10.5l2.75-3.5c1.52-1.93 3.09-3.49 3.5-3.48 0.42 0.02-0.82 1.79-2.75 3.95-1.92 2.15-3.79 3.6-4.15 3.22-0.37-0.38-1.39-3.17-2.29-6.19-0.89-3.03-1.22-5.05-0.73-4.5z"/>
		<path id="Path 1" class="s1" d="m747.55 376.75c-3.25 3.71-4.44 5.4-2.64 3.75 1.8-1.65 4.6-4.69 6.21-6.75 1.61-2.06 2.8-3.75 2.64-3.75-0.15 0-2.95 3.04-6.21 6.75zm316.36 87.45c-15.08 4.91-38.88 12.68-52.91 17.27-14.02 4.59-41.02 13.36-60 19.5-18.97 6.14-43.95 14.25-55.5 18.02-11.55 3.77-38.33 12.48-59.5 19.36-21.17 6.87-73.37 23.82-116 37.65-42.62 13.84-96.62 31.39-120 39-23.37 7.62-56.8 18.5-74.28 24.18-17.48 5.67-31.88 10.74-32 11.26-0.12 0.51 1.13 1.24 2.78 1.61 1.65 0.37 6.15 1.22 10 1.89 3.85 0.66 9.48 1.66 12.5 2.21 3.03 0.56 7.3 1.39 9.5 1.86 2.2 0.47 6.7 1.33 10 1.91 3.3 0.58 10.5 1.95 16 3.03 5.5 1.09 16.08 3.1 23.5 4.47 7.42 1.38 26.55 4.96 42.5 7.98 15.95 3.02 32.83 6.21 37.5 7.1 4.67 0.9 12.78 2.45 18 3.46 5.23 1.02 12.42 2.37 16 3.02 3.58 0.65 8.64 1.6 11.25 2.1 2.61 0.51 6.89 1.33 9.5 1.84 2.61 0.5 7.67 1.43 11.25 2.07 3.58 0.63 8.3 1.53 10.5 2.01 2.2 0.48 6.92 1.38 10.5 2.01 3.58 0.63 8.53 1.53 11 2 2.48 0.47 9.67 1.82 16 3.01 6.33 1.19 16 3.02 21.5 4.08 5.5 1.06 12.48 2.37 15.5 2.92 3.03 0.55 12.48 2.33 21 3.95 8.53 1.63 22.92 4.34 32 6.04 9.08 1.7 24.6 4.63 34.5 6.53 9.9 1.89 20.25 3.88 23 4.42 2.75 0.54 7.25 1.42 10 1.95 2.75 0.54 10.17 1.92 16.5 3.07 6.33 1.15 13.53 2.49 16 2.98 2.48 0.49 7.42 1.4 11 2.03 3.58 0.63 8.3 1.53 10.5 2.01 2.2 0.48 6.92 1.37 10.5 1.99 3.58 0.62 8.3 1.57 10.5 2.11 2.2 0.55 4.06 0.86 4.13 0.7 0.08-0.17 19.39-59.47 42.93-131.8 41.93-128.88 42.79-131.69 43.23-141 0.24-5.23-0.06-11.86-0.67-14.75-0.62-2.89-1.5-5.41-1.96-5.61-0.46-0.2-13.17 3.65-28.25 8.56z"/>
		<path id="Path 2" class="s2" d="m573.96 81.78c-1.91 0.26-2.83 1.26-3.74 4.03-0.67 2.03-1.21 4.93-1.21 6.44-0.01 1.51-0.41 3.54-0.9 4.5-0.49 0.96-1.59 4.9-2.45 8.75-0.86 3.85-1.88 8.8-2.28 11-0.4 2.2-0.78 4.22-0.85 4.5-0.07 0.28-0.42 1.4-0.77 2.5-0.35 1.1-0.92 3.8-1.26 6-0.34 2.2-0.78 4.22-0.98 4.5-0.2 0.28-1.12 3.87-2.04 8-0.92 4.12-2.26 10.43-2.98 14-0.73 3.57-1.55 7.4-1.82 8.5-0.28 1.1-0.97 4.03-1.54 6.5-0.56 2.47-1.31 5.85-1.67 7.5-0.35 1.65-1.03 5.03-1.51 7.5-0.49 2.47-1.16 5.85-1.5 7.5-0.34 1.65-0.78 3.22-0.98 3.5-0.19 0.28-1.77 7.03-3.49 15-1.72 7.97-3.79 17.43-4.59 21-0.8 3.57-1.65 7.62-1.88 9-0.24 1.37-0.93 4.75-1.53 7.5-0.6 2.75-1.26 5.22-1.48 5.5-0.21 0.28-1.33 5.23-2.5 11-1.16 5.77-2.34 11.62-2.61 13-0.27 1.37-1.79 7.9-3.36 14.5-1.58 6.6-3.4 14.7-4.05 18-0.64 3.3-1.33 6.9-1.54 8-0.2 1.1-1.03 4.7-1.84 8-0.81 3.3-1.69 7.12-1.95 8.5-0.27 1.37-0.72 3.18-1.01 4-0.29 0.82-0.75 3.3-1.02 5.5-0.27 2.2-0.98 5.24-1.56 6.75-0.59 1.51-1.49 5.11-2.01 8-0.52 2.89-1.91 9.52-3.09 14.75-1.17 5.23-2.58 11.75-3.13 14.5-0.54 2.75-1.15 5.9-1.34 7-0.2 1.1-1.24 5.37-2.32 9.5-1.07 4.12-2.48 10.2-3.13 13.5-0.64 3.3-1.85 9.15-2.68 13-0.83 3.85-2.19 10.15-3.03 14-0.83 3.85-2.14 9.48-2.91 12.5-0.76 3.02-2.72 11.57-4.34 19-1.62 7.43-3.17 15.07-3.46 17-0.28 1.93-1.27 6.43-2.19 10-0.92 3.57-1.77 7.17-1.89 8-0.12 0.83-0.57 3.52-1 6-0.43 2.48-1.06 4.95-1.41 5.5-0.34 0.55-0.74 1.9-0.88 3-0.14 1.1-0.4 3.12-0.56 4.5-0.17 1.37-0.58 2.95-0.92 3.5-0.33 0.55-1.34 4.83-2.23 9.5-0.89 4.67-2.07 10.08-2.61 12-0.55 1.92-1.44 5.75-1.98 8.5-0.55 2.75-1.2 5.9-1.45 7-0.26 1.1-0.59 3.39-0.74 5.08-0.15 1.69-0.82 3.72-1.49 4.5-0.68 0.78-1.39 3.67-1.58 6.42-0.2 2.75-0.61 5.67-0.93 6.5-0.31 0.83-1.29 4.2-2.18 7.5-0.88 3.3-1.41 7.58-1.19 9.5 0.22 1.92 0.97 5.3 1.65 7.5l1.24 4c11.87-12.4 17.99-18.88 21.26-22.4 3.27-3.53 6.85-7.37 7.95-8.54 1.1-1.17 7.17-7.71 13.5-14.54 6.32-6.83 14.65-15.8 18.5-19.93 3.85-4.14 8.55-9.11 10.45-11.05 1.89-1.95 5.67-6.02 8.39-9.04 2.72-3.02 8.14-8.89 12.05-13.04 3.91-4.15 12.06-12.9 18.11-19.45 6.05-6.55 14.41-15.54 18.57-19.96 4.17-4.43 10.72-11.43 14.57-15.55 3.84-4.13 10.56-11.34 14.92-16.03 4.37-4.7 13.11-14.12 19.44-20.94 6.33-6.83 14.46-15.59 18.08-19.47 3.63-3.88 9.03-9.68 12-12.88 2.98-3.2 6.77-7.28 8.42-9.06 1.65-1.78 6.37-6.82 10.5-11.21 4.12-4.38 12.45-13.33 18.5-19.89 6.05-6.56 14.6-15.79 19-20.51 4.4-4.72 11.34-12.16 15.42-16.55 4.08-4.38 10.61-11.35 14.5-15.5 3.89-4.15 12.03-12.91 18.08-19.47 6.05-6.56 12.55-13.52 14.44-15.46 1.89-1.94 7.56-8.03 12.59-13.53 5.02-5.5 11.01-12.03 13.3-14.5l4.16-4.5c-11.23-7.99-57.91-41.87-110.99-80.44-53.08-38.56-99.2-71.4-102.5-72.97-3.3-1.57-8.25-3.33-11-3.91-2.75-0.58-6.8-1.21-9-1.4-2.2-0.19-5.14-0.19-6.54 0z"/>
		<path id="Path 3" class="s3" d="m563 83.43c-2.48 0.68-6.52 2.15-9 3.26-2.48 1.12-10.38 6.25-17.56 11.42-7.19 5.16-55.45 40.1-107.25 77.64-55.93 40.53-94.01 68.76-93.76 69.5 0.24 0.69 2.98 9.35 6.1 19.25 3.12 9.9 7.9 24.98 10.63 33.5 2.73 8.52 5.57 17.3 6.32 19.5 0.75 2.2 3.93 12.1 7.06 22 3.14 9.9 6.97 21.82 8.51 26.5 1.54 4.68 6.03 18.62 9.98 31 3.95 12.37 8.44 26.32 9.97 31 1.53 4.68 5.35 16.6 8.49 26.5 3.13 9.9 6.97 21.82 8.53 26.5 1.56 4.68 6.05 18.62 9.98 31 3.93 12.37 8.41 26.33 9.95 31 1.54 4.67 5.37 16.6 8.51 26.5 3.13 9.9 6.32 19.8 7.08 22 0.77 2.2 2.53 7.94 3.92 12.75 1.4 4.81 2.99 8.52 3.54 8.25 0.55-0.27 0.74-1.06 0.43-1.75-0.31-0.69 0.18-4.17 1.1-7.75 0.92-3.58 1.93-7.17 2.24-8 0.32-0.83 0.73-3.75 0.93-6.5 0.19-2.75 0.9-5.64 1.58-6.42 0.67-0.78 1.34-2.81 1.49-4.5 0.15-1.69 0.48-3.98 0.74-5.08 0.25-1.1 0.9-4.25 1.45-7 0.54-2.75 1.43-6.58 1.98-8.5 0.54-1.92 1.72-7.33 2.61-12 0.89-4.67 1.9-8.95 2.23-9.5 0.34-0.55 0.75-2.13 0.92-3.5 0.16-1.38 0.42-3.4 0.56-4.5 0.14-1.1 0.54-2.45 0.88-3 0.35-0.55 0.98-3.02 1.41-5.5 0.43-2.48 0.88-5.17 1-6 0.12-0.83 0.97-4.43 1.89-8 0.92-3.57 1.91-8.07 2.19-10 0.29-1.93 1.84-9.57 3.46-17 1.62-7.43 3.58-15.98 4.34-19 0.77-3.02 2.08-8.65 2.91-12.5 0.84-3.85 2.2-10.15 3.03-14 0.83-3.85 2.04-9.7 2.68-13 0.65-3.3 2.06-9.38 3.13-13.5 1.08-4.13 2.12-8.4 2.32-9.5 0.19-1.1 0.8-4.25 1.34-7 0.55-2.75 1.96-9.27 3.13-14.5 1.18-5.23 2.57-11.86 3.09-14.75 0.52-2.89 1.42-6.49 2.01-8 0.58-1.51 1.29-4.55 1.56-6.75 0.27-2.2 0.73-4.68 1.02-5.5 0.29-0.82 0.74-2.63 1.01-4 0.26-1.38 1.14-5.2 1.95-8.5 0.81-3.3 1.64-6.9 1.84-8 0.21-1.1 0.9-4.7 1.54-8 0.65-3.3 2.47-11.4 4.05-18 1.57-6.6 3.09-13.13 3.36-14.5 0.27-1.38 1.45-7.23 2.61-13 1.17-5.77 2.29-10.73 2.5-11 0.22-0.28 0.88-2.75 1.48-5.5 0.6-2.75 1.29-6.13 1.53-7.5 0.23-1.38 1.08-5.43 1.88-9 0.8-3.57 2.87-13.03 4.59-21 1.72-7.98 3.3-14.73 3.49-15 0.2-0.28 0.64-1.85 0.98-3.5 0.34-1.65 1.01-5.03 1.5-7.5 0.48-2.48 1.16-5.85 1.51-7.5 0.36-1.65 1.11-5.03 1.67-7.5 0.57-2.48 1.26-5.4 1.54-6.5 0.27-1.1 1.09-4.93 1.82-8.5 0.72-3.57 2.06-9.88 2.98-14 0.92-4.13 1.84-7.73 2.04-8 0.2-0.28 0.64-2.3 0.98-4.5 0.34-2.2 0.91-4.9 1.26-6 0.35-1.1 0.7-2.23 0.77-2.5 0.07-0.28 0.45-2.3 0.85-4.5 0.4-2.2 1.43-7.15 2.3-11 0.86-3.85 1.93-7.9 2.37-9 0.43-1.1 1.03-4.03 1.31-6.5 0.29-2.48 0.77-5.29 1.08-6.25 0.39-1.23 0.04-1.72-1.19-1.66-0.96 0.05-3.77 0.65-6.25 1.34z"/>
		<path id="Path 4" class="s4" d="m813.33 242.4c-0.45 0.79-11.41 12.8-24.33 26.68-12.92 13.89-24.63 26.45-26 27.92-1.38 1.46-7.67 8.23-14 15.04-6.33 6.8-18.48 19.84-27 28.96-8.53 9.12-20.45 21.93-26.5 28.47-6.05 6.54-14.15 15.28-18 19.41-3.85 4.14-10.83 11.61-15.5 16.61-4.67 5-11.65 12.46-15.5 16.58-3.85 4.12-11.95 12.86-18 19.42-6.05 6.56-14.18 15.32-18.06 19.47-3.88 4.15-11.05 11.81-15.94 17.04-4.88 5.23-11.83 12.66-15.44 16.53-3.61 3.87-11.73 12.63-18.06 19.48-6.33 6.84-14.45 15.6-18.06 19.46-3.62 3.87-10.56 11.3-15.45 16.53-4.88 5.23-12.05 12.89-15.93 17.04-3.88 4.14-11.82 12.69-17.64 19-5.81 6.3-16.39 17.66-23.5 25.24-7.1 7.58-13.21 13.43-13.56 13-0.35-0.43-1.88-4.83-3.4-9.78-1.51-4.95-4.21-13.5-5.98-19-1.78-5.5-5.58-17.42-8.45-26.5-2.87-9.08-6.48-20.33-8.02-25-1.54-4.67-5.37-16.6-8.5-26.5-3.14-9.9-6.96-21.82-8.5-26.5-1.53-4.68-5.81-17.95-9.5-29.5-3.69-11.55-7.51-23.48-8.5-26.5-0.98-3.02-5.04-15.63-9.01-28-3.96-12.38-8.47-26.32-10-31-1.53-4.68-5.36-16.6-8.49-26.5-3.14-9.9-6.97-21.82-8.51-26.5-1.54-4.68-5.8-17.95-9.48-29.5-3.68-11.55-8.53-26.85-10.77-34-2.25-7.15-4.35-13.37-4.67-13.83-0.32-0.46-8.83 5.16-18.9 12.5-13.52 9.83-18.15 13.72-17.66 14.83 0.37 0.82 1.7 4.65 2.96 8.5 1.27 3.85 4.64 14.43 7.51 23.5 2.86 9.07 6.03 18.98 7.04 22 1.01 3.02 4.85 14.95 8.53 26.5 3.69 11.55 8.83 27.52 11.42 35.5 2.6 7.98 7.07 21.93 9.93 31 2.87 9.07 5.82 18.3 6.57 20.5 0.75 2.2 4.59 14.12 8.54 26.5 3.95 12.37 9.36 29.25 12.02 37.5 2.67 8.25 7.09 21.98 9.84 30.5 2.75 8.52 8.22 25.62 12.17 38 3.95 12.37 8.43 26.33 9.96 31 1.53 4.67 6.01 18.62 9.97 31 3.96 12.37 10.03 31.27 13.5 42 3.47 10.73 8.88 27.6 12.02 37.5 3.13 9.9 6.97 21.83 8.53 26.5 1.55 4.67 6.03 18.62 9.96 31 3.93 12.37 9.32 29.25 11.98 37.5 2.66 8.25 6.86 21.3 9.34 29 2.48 7.7 7.72 24.12 11.65 36.5 3.93 12.37 7.76 24.3 8.5 26.5 0.75 2.2 4.59 14.12 8.54 26.5 3.95 12.37 8.66 27 10.48 32.5 1.81 5.5 5.64 17.42 8.51 26.5 2.88 9.08 6.48 20.33 8 25 1.53 4.67 5.95 18.4 9.82 30.5 3.87 12.1 7.63 23.92 8.36 26.27l1.33 4.28 43.5-0.05c0.02-4.26-1.57-10.45-3.52-16.5-1.94-6.05-4.9-15.28-6.57-20.5-1.67-5.22-7.03-21.88-11.91-37-4.88-15.13-10.3-32-12.04-37.5-1.74-5.5-4.65-14.5-6.46-20-1.81-5.5-5.64-17.42-8.52-26.5-2.88-9.08-7.42-23.25-10.08-31.5-2.67-8.25-5.49-17.02-6.28-19.5-0.78-2.48-4.66-14.63-8.62-27-3.95-12.38-9.36-29.25-12.03-37.5-2.66-8.25-6.5-20.17-8.52-26.5-2.03-6.33-4.94-15.33-6.47-20-1.53-4.67-5.35-16.6-8.48-26.5-3.14-9.9-6.77-21.38-8.08-25.5-1.3-4.13-2.27-7.62-2.15-7.77 0.13-0.15 2.25 0.15 4.73 0.67 2.47 0.51 7.2 1.46 10.5 2.11 3.3 0.64 8.02 1.55 10.5 2.02 2.47 0.47 9.67 1.8 16 2.95 6.32 1.15 13.52 2.49 16 2.98 2.47 0.49 7.42 1.4 11 2.03 3.57 0.63 8.3 1.53 10.5 2.01 2.2 0.48 6.92 1.38 10.5 2.01 3.57 0.63 8.52 1.52 11 1.98 2.47 0.45 6.97 1.33 10 1.93 3.02 0.61 10.45 2.02 16.5 3.13 6.05 1.12 13.02 2.43 15.5 2.92 2.47 0.49 9.45 1.82 15.5 2.96 6.05 1.14 19.1 3.62 29 5.51 9.9 1.89 25.2 4.81 34 6.47 8.8 1.67 21.17 3.98 27.5 5.14 6.32 1.15 16 2.97 21.5 4.03 5.5 1.06 12.47 2.42 15.5 3.01 3.02 0.6 7.52 1.47 10 1.92 2.47 0.46 7.42 1.35 11 1.98 3.57 0.63 8.3 1.53 10.5 2.01 2.2 0.48 6.92 1.38 10.5 2 3.57 0.62 8.3 1.52 10.5 2 2.2 0.48 6.92 1.38 10.5 2.01 3.57 0.63 8.52 1.52 11 1.98 2.47 0.45 7.2 1.36 10.5 2.01 3.3 0.65 8.02 1.56 10.5 2.01 2.47 0.46 7.2 1.32 10.5 1.9 3.3 0.59 10.5 1.93 16 2.99 5.5 1.06 14.95 2.87 21 4.01 6.05 1.15 17.07 3.23 24.5 4.63 7.42 1.39 15.52 2.94 18 3.45 2.47 0.51 11.92 2.32 21 4.02 9.07 1.69 18.19 3.51 20.25 4.04l3.75 0.95c10.11-31.39 13.05-40.73 13.05-41 0-0.27-1.92-1.02-4.27-1.65-2.35-0.64-6.53-1.61-9.28-2.17-2.75-0.56-7.93-1.54-11.5-2.17-3.58-0.64-8.53-1.55-11-2.02-2.48-0.47-9.68-1.82-16-3.01-6.33-1.19-16-3.02-21.5-4.08-5.5-1.06-12.7-2.4-16-2.98-3.3-0.58-7.8-1.44-10-1.92-2.2-0.48-6.7-1.34-10-1.93-3.3-0.58-9.38-1.71-13.5-2.51-4.13-0.8-22.13-4.19-40-7.54-17.88-3.35-37-6.98-42.5-8.06-5.5-1.09-12.7-2.46-16-3.04-3.3-0.58-7.8-1.45-10-1.93-2.2-0.48-9.18-1.83-15.5-3-6.33-1.17-13.53-2.51-16-2.98-2.48-0.47-7.43-1.37-11-2-3.58-0.63-8.3-1.53-10.5-2.01-2.2-0.48-6.93-1.38-10.5-2.01-3.58-0.63-8.53-1.53-11-2-2.48-0.47-9.68-1.83-16-3.01-6.33-1.19-14.88-2.83-19-3.65-4.13-0.82-9.75-1.88-12.5-2.35-2.75-0.48-9.73-1.77-15.5-2.87-5.78-1.1-23.78-4.52-40-7.6-16.23-3.09-34-6.46-39.5-7.51-5.5-1.04-11.58-2.17-13.5-2.51-1.93-0.33-5.3-1-7.5-1.48-2.2-0.48-6.93-1.39-10.5-2.02-3.58-0.63-8.53-1.53-11-2.01-2.48-0.47-8.55-1.61-13.5-2.52-4.95-0.92-9.37-1.96-9.83-2.31-0.45-0.36 1.05-2.67 3.34-5.15 2.29-2.48 6.45-6.98 9.25-10 2.8-3.02 8.27-8.89 12.16-13.02 3.9-4.14 12.03-12.89 18.08-19.45 6.05-6.55 14.18-15.32 18.07-19.47 3.89-4.16 10.83-11.61 15.44-16.56 4.6-4.95 11.54-12.39 15.43-16.53 3.88-4.15 12.23-13.13 18.56-19.97 6.32-6.83 14.45-15.59 18.06-19.46 3.61-3.87 10.55-11.31 15.44-16.54 4.88-5.23 12.05-12.9 15.94-17.04 3.88-4.15 11.82-12.7 17.65-19 5.82-6.31 21.07-22.71 33.89-36.46 12.82-13.75 26.51-28.41 30.42-32.58 3.9-4.18 12.05-12.94 18.1-19.49 6.05-6.55 14.8-15.96 19.44-20.92 4.64-4.95 11.39-12.18 15-16.06 3.61-3.87 11.55-12.42 17.64-19 6.1-6.57 18.59-19.94 27.75-29.7l16.67-17.75c-25.96-19.05-34.02-24.91-34.67-25.31-0.64-0.4-1.54-0.08-2 0.71z"/>
		<path id="Path 5" class="s5" d="m188.5 350.54c-59.4 43.13-110.06 80.35-112.59 82.69-2.52 2.35-6.32 6.97-8.43 10.27-2.12 3.3-4.92 9.37-6.22 13.5-1.64 5.23-2.37 9.93-2.38 15.5-0.02 4.4 0.28 9.35 0.65 11 0.38 1.65 40.96 126.97 90.17 278.5 52.01 160.09 90.82 278.01 92.65 281.5 1.73 3.3 6.08 8.92 9.65 12.5 3.57 3.58 9.2 7.93 12.5 9.69 3.3 1.75 8.7 3.99 12 4.98 5.63 1.69 14.48 1.82 142.25 2.06 129.4 0.26 136.22 0.18 135.63-1.48-0.34-0.96-2.09-6.47-3.89-12.25-1.81-5.78-4.64-14.78-6.31-20-1.66-5.22-4.13-12.88-5.48-17-1.36-4.13-5.04-15.6-8.18-25.5-3.14-9.9-6.98-21.83-8.52-26.5-1.54-4.67-5.37-16.6-8.5-26.5-3.14-9.9-6.97-21.83-8.51-26.5-1.55-4.67-5.06-15.48-7.8-24-2.75-8.52-8.23-25.63-12.2-38-3.96-12.38-8.44-26.33-9.96-31-1.52-4.67-5.35-16.6-8.52-26.5-3.17-9.9-7.01-21.83-8.53-26.5-1.52-4.67-4.44-13.9-6.49-20.5-2.05-6.6-4.97-15.83-6.5-20.5-1.53-4.67-5.36-16.6-8.51-26.5-3.15-9.9-7.2-22.5-8.98-28-1.79-5.5-6.28-19.45-9.98-31-3.7-11.55-7.98-24.83-9.52-29.5-1.53-4.67-6.02-18.63-9.97-31-3.95-12.38-8.44-26.33-9.98-31-1.55-4.67-4.72-14.58-7.05-22-2.33-7.42-5.5-17.33-7.05-22-1.54-4.68-6.02-18.63-9.95-31-3.93-12.38-8.42-26.33-9.96-31-1.55-4.68-4.49-13.9-6.54-20.5-2.05-6.6-5.2-16.5-7.01-22-1.8-5.5-6.3-19.45-10-31-3.69-11.55-8.19-25.5-10-31-1.81-5.5-6.47-19.9-10.35-32-3.89-12.1-8.09-25.71-9.35-30.25-1.26-4.54-2.74-8.23-3.29-8.2-0.55 0.03-49.6 35.35-109 78.49z"/>
		<path id="Path 6" class="s6" d="m479.22 694.25c0.3 0.69 1.15 3.27 1.9 5.75 0.85 2.82 2.66 5.62 4.85 7.5 1.93 1.65 5.53 4.92 8.02 7.26 2.48 2.34 4.85 4.25 5.26 4.25 0.41-0.01 1.54 0.82 2.5 1.83 0.96 1 4.47 4.27 7.79 7.25 3.33 2.97 9.4 8.33 13.5 11.91 4.1 3.58 9.26 8.21 11.46 10.29 2.2 2.09 4.22 3.79 4.5 3.79 0.27 0 2.37 1.89 4.66 4.21 2.28 2.31 5.32 5.22 6.75 6.46 1.42 1.24 2.81 2.25 3.09 2.25 0.27 0 1.53 1.01 2.78 2.25 1.26 1.24 5.15 4.73 8.66 7.75 3.5 3.02 6.86 5.97 7.46 6.53 0.61 0.57 6.54 5.97 13.18 12 6.65 6.04 13.85 12.49 16 14.34 2.16 1.85 6.82 5.9 10.36 9 3.55 3.1 8.98 7.88 12.08 10.63 3.1 2.75 8.93 7.92 12.97 11.5 4.03 3.58 7.82 6.98 8.42 7.57 0.6 0.59 5.18 4.64 10.18 9 4.99 4.36 13.32 11.7 18.5 16.31 5.17 4.61 12.11 10.77 15.41 13.69 3.3 2.92 11.2 9.95 17.55 15.62 6.35 5.67 14.22 12.56 17.48 15.31 3.27 2.75 9.34 8.15 13.49 12 4.15 3.85 10.2 9.25 13.43 12 3.23 2.75 7.05 6.13 8.49 7.5 1.44 1.38 5.49 4.98 9 8 3.52 3.02 10.93 9.51 16.48 14.4 5.54 4.9 13.23 11.69 17.08 15.09 3.85 3.4 11.75 10.42 17.56 15.59 5.81 5.18 13.42 11.9 16.92 14.92 3.49 3.02 10.89 9.57 16.44 14.53 5.54 4.97 16.08 14.42 23.42 21 13.24 11.88 13.36 11.96 15.99 10.47 1.46-0.83 5.58-4.42 9.16-8 3.58-3.58 7.93-9.2 9.66-12.5 1.75-3.34 20.68-59.93 42.65-127.5 21.72-66.83 39.65-122.37 39.85-123.44 0.27-1.52-0.41-2.11-3.15-2.7-1.92-0.41-10.92-2.16-20-3.88-9.08-1.72-22.35-4.23-29.5-5.59-7.15-1.35-15.03-2.86-17.5-3.36-2.48-0.49-9.67-1.86-16-3.05-6.33-1.19-16-3.02-21.5-4.08-5.5-1.06-12.7-2.4-16-2.99-3.3-0.58-8.03-1.44-10.5-1.9-2.48-0.45-6.98-1.31-10-1.89-3.03-0.58-7.75-1.49-10.5-2.01-2.75-0.53-7.92-1.47-11.5-2.1-3.58-0.63-8.3-1.53-10.5-2.01-2.2-0.48-6.92-1.38-10.5-2-3.58-0.62-8.3-1.52-10.5-2-2.2-0.48-6.92-1.38-10.5-2.01-3.58-0.63-8.75-1.57-11.5-2.1-2.75-0.52-7.25-1.38-10-1.92-2.75-0.53-9.5-1.83-15-2.89-5.5-1.06-15.17-2.88-21.5-4.03-6.33-1.16-18.7-3.47-27.5-5.14-8.8-1.66-24.1-4.58-34-6.47-9.9-1.89-22.73-4.34-28.5-5.44-5.78-1.1-15.45-2.92-21.5-4.04-6.05-1.12-13.03-2.43-15.5-2.91-2.48-0.48-6.98-1.35-10-1.93-3.03-0.58-7.75-1.49-10.5-2.01-2.75-0.53-7.92-1.47-11.5-2.1-3.58-0.63-8.3-1.53-10.5-2.01-2.2-0.48-6.92-1.38-10.5-2.01-3.58-0.63-8.53-1.54-11-2.03-2.48-0.49-9.67-1.83-16-2.98-6.33-1.15-13.75-2.53-16.5-3.07-2.75-0.53-7.48-1.44-10.5-2.02-3.03-0.58-7.41-1.47-9.75-1.97-2.34-0.51-4.55-0.92-4.91-0.92-0.36 0-0.41 0.56-0.12 1.25z"/>
		<path id="Path 7" class="s7" d="m483.1 705.19c-0.07 0.17 1.62 5.71 3.77 12.31 2.14 6.6 6.48 20.1 9.64 30 3.16 9.9 6.99 21.82 8.52 26.5 1.53 4.67 5.34 16.6 8.48 26.5 3.13 9.9 6.96 21.82 8.49 26.5 1.53 4.67 6.02 18.62 9.98 31 3.95 12.37 7.78 24.3 8.5 26.5 0.73 2.2 3.69 11.42 6.58 20.5 2.89 9.07 7.43 23.25 10.11 31.5 2.67 8.25 6.38 19.72 8.25 25.5 1.88 5.77 5.75 17.92 8.62 27 2.87 9.07 6.46 20.32 7.98 25 1.52 4.67 5.97 18.4 9.89 30.5 3.91 12.1 7.23 23.35 7.38 25l0.25 3c261.46 0 271.4-0.12 277.21-1.75 3.44-0.96 7.88-2.54 9.88-3.5l3.63-1.75c-20.74-18.55-31.3-28-36.84-32.97-5.55-4.96-12.95-11.51-16.44-14.53-3.5-3.03-11.11-9.74-16.92-14.92-5.81-5.17-13.71-12.19-17.56-15.59-3.85-3.4-11.54-10.19-17.08-15.09-5.55-4.89-12.96-11.38-16.48-14.4-3.51-3.03-7.56-6.63-9-8-1.44-1.38-5.26-4.75-8.49-7.5-3.23-2.75-9.28-8.15-13.43-12-4.15-3.85-10.22-9.25-13.49-12-3.26-2.75-11.13-9.64-17.48-15.31-6.35-5.67-14.25-12.7-17.55-15.62-3.3-2.92-10.24-9.08-15.41-13.69-5.18-4.61-13.51-11.95-18.5-16.31-5-4.36-9.58-8.41-10.18-9-0.6-0.59-4.39-4-8.42-7.57-4.04-3.58-9.87-8.75-12.97-11.5-3.1-2.75-8.53-7.53-12.08-10.63-3.54-3.1-8.2-7.15-10.36-9-2.15-1.85-9.35-8.3-16-14.34-6.64-6.03-12.57-11.43-13.18-12-0.6-0.56-3.96-3.51-7.46-6.53-3.51-3.03-7.4-6.51-8.66-7.75-1.25-1.24-2.51-2.25-2.78-2.25-0.27 0-1.67-1.01-3.09-2.25-1.43-1.24-4.47-4.15-6.75-6.46-2.29-2.32-4.39-4.21-4.66-4.21-0.27 0-2.3-1.7-4.5-3.79-2.2-2.08-7.36-6.72-11.46-10.29-4.1-3.58-10.17-8.92-13.5-11.89-3.32-2.96-6.49-5.89-7.04-6.5-0.55-0.61-2.68-2.24-4.74-3.61-2.06-1.38-3.7-2.75-3.64-3.06 0.05-0.31-2.37-2.7-5.4-5.31-3.02-2.61-5.56-4.61-5.62-4.44z"/>
	</g>
</svg>